<?xml version="1.0" encoding="UTF-8" standalone="no"?>
<svg
   version="1.1"
   id="Layer_1"
   x="0px"
   y="0px"
   width="574.22339"
   viewBox="0 0 574.22339 271.2551"
   enable-background="new 0 0 1024 1024"
   xml:space="preserve"
   xmlns="http://www.w3.org/2000/svg"
   xmlns:svg="http://www.w3.org/2000/svg"><path
   fill="#000000"
   opacity="1"
   stroke="none"
   d="m 343.92855,234.16036 c -28.77866,7.57836 -57.24642,8.30046 -85.45391,-0.69541 -31.729,-10.11887 -55.53678,-29.81758 -67.31749,-61.38538 -13.10299,-35.1109 -9.31541,-69.15023 11.50305,-100.586502 18.75708,-28.323544 45.87247,-43.990835 79.02565,-49.487486 33.05014,-5.479512 64.63009,-0.491049 94.4498,14.737315 10.5925,5.409395 9.52234,4.11106 7.95316,15.114809 -0.93421,6.551043 -2.15898,13.062088 -3.33454,19.576412 -0.35659,1.976139 -0.03,4.70364 -2.82471,5.031698 -2.54103,0.298243 -2.94138,-2.257735 -3.72899,-3.965827 -8.2475,-17.885951 -21.84441,-29.749999 -40.79615,-34.787331 -30.60262,-8.134125 -64.89778,1.379475 -86.2249,27.549207 -16.13775,19.802081 -23.58045,42.759385 -22.12654,68.033325 2.0346,35.36778 16.73884,64.09953 48.70482,81.47631 22.23842,12.08881 46.10447,13.38934 70.09965,5.15917 14.00625,-4.80412 24.94515,-14.07747 33.80238,-25.84737 0.763,-1.01394 1.43452,-2.10799 2.28051,-3.04578 1.55796,-1.72694 3.11482,-1.52212 3.84601,0.64691 1.75529,5.20658 3.29472,10.48628 4.9018,15.7424 0.77778,2.54382 -1.30953,3.51444 -2.76851,4.70229 -12.4106,10.1045 -26.27796,17.46469 -41.99109,22.03124"
   style="fill:#000000;fill-opacity:1;stroke-width:0.847234" />
<path
   style="fill:#000000;fill-opacity:1"
   d="M 39.016043,60.919786 95.144385,61.604278 39.700535,225.19787 Z" /><path
   style="fill:#000000;fill-opacity:1"
   d="m 481.55615,60.160428 56.12834,0.684492 -55.44385,163.59359 z" /><path
   fill="#000000"
   opacity="1"
   stroke="none"
   d="m 33.167917,104.88006 c 10e-4,-11.163478 0.0104,-21.826938 -2.4e-4,-32.490388 -0.005,-4.97796 0.33523,-9.95322 -1.46979,-14.80441 -1.19602,-3.21448 0.0317,-5.07807 3.75601,-5.06818 20.82678,0.0553 41.65375,0.0656 62.48059,0.0376 3.570683,-0.005 4.448493,1.80106 3.421513,4.80365 -1.712493,5.00705 -1.512883,10.15485 -1.511473,15.31659 0.0134,49.484858 0.005,98.969688 -0.0117,148.454558 -0.002,5.8128 -1.20453,7.10388 -5.87296,6.70959 -2.94131,-0.24847 -4.64691,-1.59729 -4.63952,-4.70831 0.004,-1.66589 -0.0421,-3.33185 -0.0424,-4.9978 -0.007,-48.81855 -0.006,-97.63712 -0.021,-146.455688 -0.002,-7.56323 -0.0355,-7.59442 -7.31283,-7.60724 -12.58332,-0.0222 -11.16373,-1.29596 -11.17554,11.22198 -0.0438,46.485938 -0.027,92.971928 -0.0464,139.457888 -0.002,5.45868 -1.13342,6.61426 -5.21621,6.00122 -3.64118,-0.54681 -3.25785,-3.21014 -3.26172,-5.67547 -0.0317,-20.16059 -0.0428,-40.32111 -0.0444,-60.48169 -0.002,-27.99155 -0.0942,-55.983888 0.11164,-83.973968 0.0363,-4.93967 -1.30039,-6.80258 -6.45337,-6.65076 -13.94532,0.41095 -11.99662,-1.36322 -12.01526,11.97101 -0.0673,48.152068 -0.0494,96.304228 -0.0835,144.456328 -0.004,5.85351 -1.46637,7.60693 -6.07883,7.58368 -2.75186,-0.0139 -4.45413,-1.17743 -4.49502,-4.13599 -0.0184,-1.3327 -0.0294,-2.66571 -0.0294,-3.99853 0.003,-38.15522 0.008,-76.31043 0.0118,-114.96564 z"
   style="fill:#000000;fill-opacity:1" />
<path
   fill="#000000"
   opacity="1"
   stroke="none"
   d="m 502.23021,150.88012 c -0.005,-27.16434 -0.14142,-53.829828 0.0981,-80.491938 0.046,-5.11444 -1.48993,-6.62366 -6.51031,-6.46479 -13.84052,0.43802 -12.0058,-1.17251 -12.02594,12.10675 -0.073,48.162328 -0.0161,96.324768 -0.0508,144.487188 -0.002,2.54333 0.75781,5.44714 -2.50263,6.95001 -4.7207,2.17621 -8.05719,-0.25763 -8.05975,-6.08991 -0.0222,-50.82879 -0.0316,-101.65762 -0.006,-152.486418 0.002,-4.0158 -0.0699,-7.96328 -1.45246,-11.81829 -1.03216,-2.87824 0.065,-4.49588 3.25574,-4.49497 20.99793,0.006 41.99591,0.006 62.99384,-0.006 3.22204,-0.002 4.26513,1.7583 3.34625,4.54175 -2.14777,6.50592 -1.50342,13.18768 -1.50714,19.82183 -0.0267,47.995758 -0.0122,95.991548 0.008,143.987278 0.001,3.22906 0.40027,6.5495 -4.27155,6.91668 -3.78997,0.29792 -6.23748,-0.89941 -6.26123,-5.10296 -0.0386,-6.83252 -0.0577,-13.6651 -0.0591,-20.49768 -0.009,-43.8295 -0.009,-87.65897 -0.0158,-131.488468 -10e-4,-6.66339 -0.0112,-6.71057 -6.5224,-6.67855 -13.66876,0.0672 -11.88818,-1.63312 -11.9068,11.97268 -0.0634,46.162508 -0.0145,92.325198 -0.0897,138.487728 -0.004,2.31983 1.33692,5.61646 -3.19061,5.8982 -3.86682,0.24054 -5.29309,-1.06433 -5.27014,-5.05713 0.1225,-21.33026 0.0228,-42.66181 -6e-5,-64.49286 z"
   style="fill:#000000;fill-opacity:1" />
</svg>
