<svg xmlns="http://www.w3.org/2000/svg" width="1024" height="1024" viewBox="0 0 1024 1024">
  <rect width="1024" height="1024" fill="#ffffff"/>
  <g transform="translate(132, 241.64) scale(2.45627)">
    <path
      d="m 212.26012,214.31009 c -28.77866,7.57836 -57.24642,8.30046 -85.45391,-0.69541 C 95.077206,203.49581 71.269426,183.7971 59.488716,152.2293 46.385726,117.1184 50.173306,83.079072 70.991766,51.6428 89.748846,23.319256 116.86424,7.6519654 150.01742,2.1553144 c 33.05014,-5.479512 64.63009,-0.491049 94.4498,14.7373146 10.5925,5.409395 9.52234,4.11106 7.95316,15.114809 -0.93421,6.551043 -2.15898,13.062088 -3.33454,19.576412 -0.35659,1.976139 -0.03,4.70364 -2.82471,5.031698 -2.54103,0.298243 -2.94138,-2.257735 -3.72899,-3.965827 C 234.28464,34.76377 220.68773,22.899722 201.73599,17.86239 171.13337,9.7282654 136.83821,19.241865 115.51109,45.411597 99.373336,65.213678 91.930636,88.170982 93.384546,113.44492 c 2.0346,35.36778 16.738844,64.09953 48.704824,81.47631 22.23842,12.08881 46.10447,13.38934 70.09965,5.15917 14.00625,-4.80412 24.94515,-14.07747 33.80238,-25.84737 0.763,-1.01394 1.43452,-2.10799 2.28051,-3.04578 1.55796,-1.72694 3.11482,-1.52212 3.84601,0.64691 1.75529,5.20658 3.29472,10.48628 4.9018,15.7424 0.77778,2.54382 -1.30953,3.51444 -2.76851,4.70229 -12.4106,10.1045 -26.27796,17.46469 -41.99109,22.03124"
      fill="#265376"
    />
    <circle cx="291.61499" cy="110.08887" r="17.796791" fill="#353737"/>
    <circle cx="17.796791" cy="110.08887" r="17.796791" fill="#353737"/>
  </g>
</svg>
