<?xml version="1.0" encoding="UTF-8" standalone="no"?>
<svg
   version="1.1"
   id="Layer_1"
   x="0px"
   y="0px"
   width="309.41177"
   viewBox="0 0 309.41177 220.17774"
   enable-background="new 0 0 1024 1024"
   xml:space="preserve"
   sodipodi:docname="chronicon_logo_black.svg"
   height="220.17773"
   inkscape:version="1.4.3 (fcd0343856, 2026-01-01)"
   xmlns:inkscape="http://www.inkscape.org/namespaces/inkscape"
   xmlns:sodipodi="http://sodipodi.sourceforge.net/DTD/sodipodi-0.dtd"
   xmlns="http://www.w3.org/2000/svg"
   xmlns:svg="http://www.w3.org/2000/svg"><defs
   id="defs11" /><sodipodi:namedview
   id="namedview11"
   pagecolor="#505050"
   bordercolor="#eeeeee"
   borderopacity="1"
   inkscape:showpageshadow="0"
   inkscape:pageopacity="0"
   inkscape:pagecheckerboard="0"
   inkscape:deskcolor="#505050"
   inkscape:zoom="1.4609375"
   inkscape:cx="123.20856"
   inkscape:cy="58.181818"
   inkscape:window-width="1920"
   inkscape:window-height="956"
   inkscape:window-x="0"
   inkscape:window-y="0"
   inkscape:window-maximized="1"
   inkscape:current-layer="Layer_1"
   showguides="true"><sodipodi:guide
     position="0.43851484,209.65082"
     orientation="1,0"
     id="guide13"
     inkscape:locked="false" /><sodipodi:guide
     position="309.82889,221.97168"
     orientation="1,0"
     id="guide14"
     inkscape:locked="false" /></sodipodi:namedview>
<path
   fill="#000000"
   opacity="1"
   stroke="none"
   d="m 212.26012,214.31009 c -28.77866,7.57836 -57.24642,8.30046 -85.45391,-0.69541 C 95.077206,203.49581 71.269426,183.7971 59.488716,152.2293 46.385726,117.1184 50.173306,83.079072 70.991766,51.6428 89.748846,23.319256 116.86424,7.6519654 150.01742,2.1553144 c 33.05014,-5.479512 64.63009,-0.491049 94.4498,14.7373146 10.5925,5.409395 9.52234,4.11106 7.95316,15.114809 -0.93421,6.551043 -2.15898,13.062088 -3.33454,19.576412 -0.35659,1.976139 -0.03,4.70364 -2.82471,5.031698 -2.54103,0.298243 -2.94138,-2.257735 -3.72899,-3.965827 C 234.28464,34.76377 220.68773,22.899722 201.73599,17.86239 171.13337,9.7282654 136.83821,19.241865 115.51109,45.411597 99.373336,65.213678 91.930636,88.170982 93.384546,113.44492 c 2.0346,35.36778 16.738844,64.09953 48.704824,81.47631 22.23842,12.08881 46.10447,13.38934 70.09965,5.15917 14.00625,-4.80412 24.94515,-14.07747 33.80238,-25.84737 0.763,-1.01394 1.43452,-2.10799 2.28051,-3.04578 1.55796,-1.72694 3.11482,-1.52212 3.84601,0.64691 1.75529,5.20658 3.29472,10.48628 4.9018,15.7424 0.77778,2.54382 -1.30953,3.51444 -2.76851,4.70229 -12.4106,10.1045 -26.27796,17.46469 -41.99109,22.03124"
   id="path1"
   sodipodi:nodetypes="csssssssscssssssssssc"
   style="fill:#000000;fill-opacity:1;stroke-width:0.847234" />










<circle
   style="fill:#000000;fill-opacity:1"
   id="path13"
   cx="291.61499"
   cy="110.08887"
   r="17.796791" /><circle
   style="fill:#000000;fill-opacity:1"
   id="path13-1"
   cx="17.796791"
   cy="110.08887"
   r="17.796791" /></svg>
